<?xml version="1.0" encoding="UTF-8" standalone="no"?>
<!-- Created with Inkscape (http://www.inkscape.org/) -->

<svg
   version="1.1"
   id="svg824"
   width="130"
   height="130"
   viewBox="0 0 130 130"
   sodipodi:docname="calzado.svg"
   inkscape:version="1.1 (c68e22c387, 2021-05-23)"
   xmlns:inkscape="http://www.inkscape.org/namespaces/inkscape"
   xmlns:sodipodi="http://sodipodi.sourceforge.net/DTD/sodipodi-0.dtd"
   xmlns="http://www.w3.org/2000/svg"
   xmlns:svg="http://www.w3.org/2000/svg">
  <defs
     id="defs828" />
  <sodipodi:namedview
     id="namedview826"
     pagecolor="#505050"
     bordercolor="#ffffff"
     borderopacity="1"
     inkscape:pageshadow="0"
     inkscape:pageopacity="0"
     inkscape:pagecheckerboard="1"
     showgrid="false"
     width="150px"
     inkscape:zoom="1.4949462"
     inkscape:cx="39.800763"
     inkscape:cy="64.550818"
     inkscape:window-width="1366"
     inkscape:window-height="745"
     inkscape:window-x="-8"
     inkscape:window-y="760"
     inkscape:window-maximized="1"
     inkscape:current-layer="g830" />
  <g
     inkscape:groupmode="layer"
     inkscape:label="Image"
     id="g830">
    <path
       style="fill:#fdf8f5;fill-opacity:0.00686502"
       d="m -159.20305,-60.25027 v -63.5 h 86.5 86.5 v 63.5 63.5 h -86.5 -86.5 z"
       id="path1010" />
    <path
       style="fill:#28a745;fill-opacity:1"
       d="M 51.039159,119.72033 C 22.347267,111.84239 3.8835677,82.507659 9.8263772,54.242351 15.439807,27.543645 37.762236,9.0073207 64.431097,8.8991307 c 16.14639,-0.0655 29.05669,5.1648403 40.045173,16.2234913 12.13879,12.216297 17.60424,26.144465 16.71681,42.601172 -1.36379,25.290541 -17.96969,45.594226 -42.486293,51.947116 -7.2816,1.88685 -20.887095,1.91116 -27.667628,0.0494 z m 31.371058,-8.42678 c 37.464433,-15.060928 43.012743,-65.649137 9.57072,-87.263749 -9.19368,-5.94216 -17.62024,-8.11185 -29.354815,-7.55834 -11.824541,0.55776 -18.795952,3.01607 -27.499186,9.696959 -19.629599,15.068333 -24.949549,44.419809 -11.772879,64.953868 6.59702,10.280572 17.474257,18.303142 29.34159,21.641082 7.585636,2.13361 22.59814,1.39103 29.71457,-1.46982 z M 48.086867,95.755263 c -0.910674,-0.910673 -1.65577,-2.963252 -1.65577,-4.561288 0,-3.798139 2.943329,-5.689289 11.087304,-7.123822 8.778251,-1.546258 12.309622,-4.970748 11.409515,-11.064193 -1.221008,-8.265857 -2.18193,-20.278758 -1.723347,-21.544317 0.349143,-0.963534 3.344601,-1.211189 12.095298,-1 l 11.63123,0.280708 -0.16612,6.5 c -0.0914,3.575 -0.28891,10.325 -0.43897,15 -0.15006,4.675 -0.16659,11.835327 -0.0367,15.911838 0.27903,8.758772 -0.30509,9.436935 -7.35819,8.542829 -5.59507,-0.709275 -6.49951,-0.704179 -22.09423,0.124491 -9.510122,0.505348 -11.330653,0.353102 -12.75,-1.066246 z M 37.841741,88.742351 c -1.261962,-5.028056 0.20944,-7.309696 5.780937,-8.964253 2.844282,-0.844661 6.221354,-1.535747 7.504605,-1.535747 1.283252,0 3.923754,-1.4625 5.867784,-3.25 l 3.5346,-3.25 -1.54864,-12.464931 c -1.384783,-11.146057 -1.388013,-12.625558 -0.03052,-13.983049 1.152514,-1.152514 1.935048,-1.256785 3.249355,-0.432972 1.411796,0.884921 1.993445,3.993957 3.152302,16.849713 l 1.421066,15.764566 -2.292814,1.729472 c -1.261047,0.95121 -4.99012,2.23109 -8.286827,2.844176 -6.95892,1.294147 -10.475199,3.307192 -11.782375,6.745324 -1.309938,3.445398 -5.700378,3.410446 -6.569472,-0.0523 z M 66.22781,44.69553 c -0.846642,-1.858178 -0.885079,-3.089537 -0.133625,-4.280838 0.893435,-1.41639 2.951325,-1.672341 13.445902,-1.672341 h 12.39101 v 4 4 l -12.25739,0.280838 -12.257386,0.280838 z m -8.402671,-3.868706 c -0.298754,-0.77854 -0.397131,-2.69104 -0.218616,-4.25 l 0.324574,-2.834473 12.25,-0.280779 c 10.45397,-0.239613 12.25,-0.05634 12.25,1.25 0,1.253947 -1.53253,1.530779 -8.47432,1.530779 -8.404497,0 -8.487102,0.02472 -10.02568,3 -1.64374,3.178643 -5.145518,4.087341 -6.105958,1.584473 z"
       id="path1008" />
  </g>
</svg>
