<?xml version="1.0" encoding="UTF-8" standalone="no"?>
<!-- Created with Inkscape (http://www.inkscape.org/) -->

<svg
   width="450"
   height="450"
   viewBox="0 0 119.06249 119.0625"
   version="1.1"
   id="svg5"
   inkscape:version="1.1 (c68e22c387, 2021-05-23)"
   sodipodi:docname="contacto.svg"
   xmlns:inkscape="http://www.inkscape.org/namespaces/inkscape"
   xmlns:sodipodi="http://sodipodi.sourceforge.net/DTD/sodipodi-0.dtd"
   xmlns="http://www.w3.org/2000/svg"
   xmlns:svg="http://www.w3.org/2000/svg">
  <sodipodi:namedview
     id="namedview7"
     pagecolor="#505050"
     bordercolor="#ffffff"
     borderopacity="1"
     inkscape:pageshadow="0"
     inkscape:pageopacity="0"
     inkscape:pagecheckerboard="1"
     inkscape:document-units="mm"
     showgrid="false"
     units="px"
     inkscape:zoom="0.49887767"
     inkscape:cx="358.8054"
     inkscape:cy="113.25422"
     inkscape:window-width="1366"
     inkscape:window-height="745"
     inkscape:window-x="-8"
     inkscape:window-y="760"
     inkscape:window-maximized="1"
     inkscape:current-layer="layer1" />
  <defs
     id="defs2" />
  <g
     inkscape:label="Capa 1"
     inkscape:groupmode="layer"
     id="layer1">
    <path
       style="fill:#28a745;fill-opacity:1;stroke-width:0.264583"
       d="m 29.110186,117.17184 c 10.95546,-1.7852 25.36012,-9.71325 40.38923,-22.229459 9.18743,-7.65128 19.97055,-18.58517 27.22938,-27.61009 7.179454,-8.92624 13.047794,-18.06039 16.372504,-25.48404 5.47242,-12.219178 5.7394,-21.001575 0.80445,-26.461852 l -1.27478,-1.410478 -13.582274,13.580348 -13.58226,13.580347 v 1.776975 c 0,2.34845 -0.65632,4.00939 -2.71447,6.86949 -6.9599,9.67183 -21.36186,24.22205 -31.68137,32.0075 -3.85276,2.90669 -5.15762,3.51067 -7.83169,3.62504 l -2.14314,0.0917 -13.55483,13.55675 -13.55483,13.556749 1.39992,1.25865 c 3.31649,2.98181 8.29735,4.17671 13.72416,3.2924 z m -3.9784,-19.667409 c 7.19591,-7.19701 13.02759,-13.14135 12.95929,-13.20965 -0.53949,-0.53949 -11.50212,-6.89246 -12.66098,-7.33718 -2.00407,-0.76909 -4.31678,-0.78701 -5.71262,-0.0443 -0.59109,0.31452 -4.6352,4.16443 -9.1601,8.72022 -7.4448497,7.49568 -8.1392197,8.27206 -8.5636897,9.5751 -0.56058,1.72084 -0.44201,3.47219 0.34468,5.091149 0.35854,0.73787 2.23873,2.83368 5.13772,5.72693 l 4.5722297,4.56319 z m 34.78913,-41.39102 c -0.13825,-0.13127 -4.88069,-3.76426 -10.53876,-8.07331 -6.64382,-5.05978 -10.39221,-7.753792 -10.58333,-7.606374 -0.16276,0.125544 -1.08578,0.841504 -2.05114,1.591014 -0.96536,0.74952 -2.01419,1.36276 -2.33072,1.36276 -0.31654,0 -1.51123,-0.71229 -2.65487,-1.58287 l -2.07935,-1.582875 -10.2743,7.819895 c -5.65087,4.30094 -10.3874097,7.93026 -10.5256597,8.06516 -0.15442,0.15068 9.6871697,0.24527 25.5190597,0.24527 15.32472,0 25.66854,-0.0968 25.51907,-0.23867 z m 3.05593,-17.477536 c 0,-9.028271 -0.0623,-16.41504 -0.13833,-16.41504 -0.0949,0 -18.80366,14.159184 -21.49342,16.266654 -0.0375,0.0294 2.52233,2.021927 5.68854,4.427852 3.16622,2.40592 8.04871,6.12067 10.84998,8.25499 l 5.09323,3.88059 z m -46.24278,8.097946 c 5.92621,-4.51589 10.74824,-8.2291 10.71562,-8.251574 -0.0326,-0.02249 -4.86332,-3.698573 -10.7349,-8.169107 -5.87158,-4.470535 -10.7242897,-8.079555 -10.7837997,-8.020045 -0.0595,0.05951 -0.0775,7.430426 -0.04,16.379814 l 0.0682,16.271612 z m 30.29092,-15.873319 c 6.86996,-5.261139 12.63854,-9.714537 12.81906,-9.896438 0.26256,-0.264567 -4.82838,-0.330729 -25.44807,-0.330729 -25.3048097,0 -25.7667597,0.0092 -25.2544797,0.50124 0.53794,0.516731 25.2671497,19.362522 25.3476097,19.317072 0.0248,-0.014 5.66592,-4.330004 12.53588,-9.591145 z m 50.55416,-5.803416 13.037264,-13.03925 -4.83593,-4.7795613 c -4.09393,-4.046219 -5.03598,-4.846716 -6.139824,-5.21725 -1.64619,-0.552587 -2.88332,-0.553677 -4.53595,-0.004 -1.14924,0.382253 -2.27141,1.394329 -9.46098,8.5328123 -4.48639,4.454515 -8.37116,8.515837 -8.63281,9.02516 -0.26166,0.509323 -0.55874,1.31061 -0.66018,1.780637 -0.24874,1.152539 0.28317,3.588417 1.1711,5.363112 0.89856,1.795912 6.60005,11.219804 6.84331,11.311189 0.0972,0.03652 6.04351,-5.801268 13.214,-12.972854 z"
       id="path2738" />
  </g>
</svg>
