<?xml version="1.0" encoding="UTF-8" standalone="no"?>
<!-- Created with Inkscape (http://www.inkscape.org/) -->

<svg
   width="450"
   height="450"
   viewBox="0 0 119.06249 119.0625"
   version="1.1"
   id="svg5"
   inkscape:version="1.1 (c68e22c387, 2021-05-23)"
   sodipodi:docname="home.svg"
   xmlns:inkscape="http://www.inkscape.org/namespaces/inkscape"
   xmlns:sodipodi="http://sodipodi.sourceforge.net/DTD/sodipodi-0.dtd"
   xmlns="http://www.w3.org/2000/svg"
   xmlns:svg="http://www.w3.org/2000/svg">
  <sodipodi:namedview
     id="namedview7"
     pagecolor="#505050"
     bordercolor="#ffffff"
     borderopacity="1"
     inkscape:pageshadow="0"
     inkscape:pageopacity="0"
     inkscape:pagecheckerboard="1"
     inkscape:document-units="mm"
     showgrid="false"
     units="px"
     inkscape:zoom="0.49887767"
     inkscape:cx="649.45782"
     inkscape:cy="594.33408"
     inkscape:window-width="1366"
     inkscape:window-height="745"
     inkscape:window-x="-8"
     inkscape:window-y="760"
     inkscape:window-maximized="1"
     inkscape:current-layer="layer1" />
  <defs
     id="defs2" />
  <g
     inkscape:label="Capa 1"
     inkscape:groupmode="layer"
     id="layer1">
    <g
       id="g2619"
       transform="translate(-98.84857,-162.24816)">
      <path
         style="fill:#28a745;fill-opacity:1;stroke-width:0.264583"
         d="m 125.37465,279.36738 c -5.49458,-0.71886 -10.20042,-4.96087 -11.64167,-10.49421 -0.33492,-1.28585 -0.39295,-5.04452 -0.38703,-25.0711 l 0.007,-23.55847 22.33083,-15.27318 c 12.28195,-8.40025 22.45521,-15.30588 22.60723,-15.34583 l -0.28478,44.82814 -9.91412,0.0783 -1.10239,0.72986 c -0.60631,0.40142 -1.43083,1.22609 -1.83225,1.8326 l -0.72989,1.10274 -0.0724,20.72312 -0.0724,20.72313 -8.65886,-0.0335 c -4.76238,-0.0184 -9.37454,-0.12718 -10.24925,-0.24162 z m -22.89666,-62.24644 c -5.944631,-1.68145 -8.088981,-9.30989 -3.873441,-13.7796 1.24395,-1.31895 53.852381,-37.38898 56.376901,-38.65381 1.31773,-0.6602 1.87414,-0.78454 3.44626,-0.77012 1.28038,0.0118 2.26024,0.18797 3.09043,0.5558 1.19374,0.52891 55.35347,37.43068 56.54109,38.52431 0.33369,0.30728 0.98854,1.33465 1.45521,2.28303 0.74493,1.51385 0.84745,1.9833 0.8399,3.84578 -0.008,1.89712 -0.10328,2.29773 -0.90401,3.78868 -1.03144,1.92055 -1.93997,2.77181 -3.98218,3.73112 -1.92467,0.90411 -4.81665,0.95418 -6.64913,0.11512 -0.67385,-0.30854 -12.22291,-8.0921 -25.66459,-17.2968 -13.44167,-9.2047 -24.56137,-16.73846 -24.71044,-16.7417 -0.14907,-0.003 -11.28141,7.53101 -24.73854,16.74277 -13.45712,9.21177 -24.996,16.98618 -25.64193,17.27649 -1.46006,0.6562 -3.99683,0.82831 -5.58553,0.37893 z"
         id="path1451"
         sodipodi:nodetypes="ssscscccsscccsssssscssscsssscsss" />
      <path
         style="color:#000000;fill:#28a745;fill-opacity:1;stroke-width:0.0700042;-inkscape-stroke:none"
         d="m 190.63781,279.36737 c 5.49458,-0.71884 10.20042,-4.96085 11.64167,-10.49419 0.33492,-1.28585 0.39295,-5.04453 0.38703,-25.07111 l -0.007,-23.55847 -22.33083,-15.27318 c -12.28195,-8.40025 -22.45521,-15.30588 -22.60723,-15.34583 l 0.28478,44.82814 9.91412,0.0783 1.10239,0.72986 c 0.60631,0.40142 1.43083,1.22609 1.83225,1.8326 l 0.72989,1.10274 0.0724,20.72312 0.0724,20.72314 8.65886,-0.0335 c 4.76238,-0.0185 9.37454,-0.12716 10.24925,-0.24162 z"
         id="path2028" />
    </g>
  </g>
</svg>
