<?xml version="1.0" encoding="UTF-8" standalone="no"?>
<!-- Created with Inkscape (http://www.inkscape.org/) -->

<svg
   width="130"
   height="130"
   viewBox="0 0 34.395833 34.395834"
   version="1.1"
   id="svg5"
   inkscape:version="1.1 (c68e22c387, 2021-05-23)"
   sodipodi:docname="indumentaria.svg"
   xmlns:inkscape="http://www.inkscape.org/namespaces/inkscape"
   xmlns:sodipodi="http://sodipodi.sourceforge.net/DTD/sodipodi-0.dtd"
   xmlns="http://www.w3.org/2000/svg"
   xmlns:svg="http://www.w3.org/2000/svg">
  <sodipodi:namedview
     id="namedview7"
     pagecolor="#505050"
     bordercolor="#ffffff"
     borderopacity="1"
     inkscape:pageshadow="0"
     inkscape:pageopacity="0"
     inkscape:pagecheckerboard="1"
     inkscape:document-units="mm"
     showgrid="false"
     units="px"
     width="130px"
     inkscape:zoom="1.4110391"
     inkscape:cx="30.119647"
     inkscape:cy="99.57201"
     inkscape:window-width="1366"
     inkscape:window-height="745"
     inkscape:window-x="-8"
     inkscape:window-y="760"
     inkscape:window-maximized="1"
     inkscape:current-layer="layer1" />
  <defs
     id="defs2" />
  <g
     inkscape:label="Capa 1"
     inkscape:groupmode="layer"
     id="layer1">
    <path
       id="rect1838"
       style="font-variation-settings:normal;opacity:1;vector-effect:none;fill:#28a745;fill-opacity:1;fill-rule:evenodd;stroke-width:0.73274;stroke-linecap:butt;stroke-linejoin:miter;stroke-miterlimit:4;stroke-dasharray:none;stroke-dashoffset:0;stroke-opacity:1;-inkscape-stroke:none;stop-color:#000000;stop-opacity:1"
       d="m 17.08138,2.1900226 c -0.53783,0.005 -1.07511,0.0434 -1.60869,0.11524 -5.32827,0.71707 -9.2907996,3.55904 -11.6669896,8.3674504 -4.79770998,9.70856 2.19586,21.0425 13.2865296,21.53254 0.38738,0.0171 1.63754,-0.14589 2.77813,-0.36225 7.15533,-1.35736 12.27019,-7.4832 12.25609,-14.67766 -0.005,-2.75579 -0.61291,-5.08795 -1.92288,-7.3825004 -2.66281,-4.66418 -7.92314,-7.64498 -13.12219,-7.59282 z m 0.0822,2.0066 c 3.67765,0.0127 6.49869,1.18004 9.11417,3.77135 7.06087,6.9955804 4.03977,18.9252104 -5.48235,21.6482904 -2.41988,0.69202 -5.22049,0.64482 -7.60625,-0.12816 C 8.5374804,27.980973 5.3267504,24.203433 4.4553204,19.211723 3.1132104,11.523993 9.3378904,4.1695626 17.16358,4.1966226 Z m 2.83239,3.96255 c -0.39531,0 -0.71333,0.51959 -1.41645,2.3151004 -0.89147,2.27646 -0.90482,2.36921 -0.79375,5.55625 0.10332,2.96495 0.15585,3.24115 0.61443,3.24115 0.27572,0 0.50129,-0.0893 0.50178,-0.19844 4.7e-4,-0.10914 0.42278,-2.45066 0.93793,-5.2033 0.51515,-2.75263 0.87549,-5.1636504 0.80098,-5.3578104 -0.0745,-0.19416 -0.36459,-0.35295 -0.64492,-0.35295 z m -5.74849,0.0103 c -0.58935,0.0112 -0.63686,0.62801 -0.27285,2.4019204 0.22044,1.07427 0.644,3.36209 0.94155,5.08393 0.29755,1.72183 0.60889,3.23987 0.69143,3.37343 0.0825,0.13356 0.50013,0.24288 0.9281,0.24288 h 0.77825 v -2.59157 c 0,-2.44721 -0.0651,-2.75264 -1.16479,-5.49011 -0.76545,-1.9053704 -1.3189,-2.9296904 -1.6154,-2.9894804 -0.10668,-0.0215 -0.2021,-0.0326 -0.28629,-0.031 z m -2.22002,0.40566 c -0.081,-0.002 -0.17196,0.0108 -0.27491,0.0377 -0.5466,0.14294 -0.55828,0.23627 -0.38034,2.9817304 0.20169,3.11193 -0.0974,4.27513 -1.35289,5.26272 -0.6489596,0.51047 -1.0737296,1.66671 -0.7844496,2.13476 0.10166,0.16449 1.2011996,0.27957 2.6706396,0.27957 2.27435,0 2.49804,-0.0448 2.49804,-0.50075 0,-0.76933 -1.57886,-9.0809604 -1.84847,-9.7311904 -0.13039,-0.31446 -0.28475,-0.45791 -0.52762,-0.46457 z m 10.2831,0.0165 c -0.13237,-0.005 -0.2409,0.0154 -0.29353,0.0641 -0.16644,0.15391 -1.39504,6.2197504 -1.92443,9.5012204 l -0.18293,1.1343 2.60501,-0.076 2.60449,-0.076 0.0806,-0.83147 c 0.065,-0.66896 -0.0731,-0.94135 -0.70693,-1.39268 -1.32695,-0.94487 -1.73212,-2.47631 -1.44797,-5.47202 0.23092,-2.4345404 0.21757,-2.5587004 -0.29714,-2.7569404 -0.14821,-0.0571 -0.30482,-0.089 -0.43718,-0.0946 z M 17.84313,20.314943 v 0.80874 0.80873 l 3.63802,-0.0739 3.63802,-0.0734 v -0.66146 -0.66145 l -3.63802,-0.0739 z m -6.52467,0.0517 c -1.5619596,0.004 -1.9367996,0.0975 -2.0350196,0.35347 -0.0852,0.22207 -0.0852,0.5851 0,0.80718 0.13096,0.34127 0.7542596,0.39246 4.0266296,0.33073 l 3.8716,-0.0729 v -0.66146 -0.66145 l -3.8716,-0.0729 c -0.81809,-0.0154 -1.47095,-0.0242 -1.99161,-0.0227 z m 6.57893,2.59467 -0.11679,1.26401 c -0.14618,1.57792 0.26321,1.99465 1.77664,1.80919 0.58526,-0.0717 1.85587,-0.20208 2.82411,-0.2899 2.12182,-0.19245 2.63377,-0.51965 2.69286,-1.72238 l 0.045,-0.91416 -3.61115,-0.0734 z m -8.5209296,5.2e-4 v 0.89193 c 0,1.60253 0.38582,1.73937 6.3654996,2.26085 0.22686,0.0198 0.63193,-0.12421 0.90021,-0.32039 0.33712,-0.24651 0.49583,-0.71644 0.51366,-1.52136 l 0.0258,-1.16479 -3.9026,-0.0734 z" />
  </g>
</svg>
