<?xml version="1.0" encoding="UTF-8" standalone="no"?>
<!-- Created with Inkscape (http://www.inkscape.org/) -->

<svg
   width="450"
   height="450"
   viewBox="0 0 119.06249 119.0625"
   version="1.1"
   id="svg5"
   inkscape:version="1.1 (c68e22c387, 2021-05-23)"
   sodipodi:docname="nosotros.svg"
   xmlns:inkscape="http://www.inkscape.org/namespaces/inkscape"
   xmlns:sodipodi="http://sodipodi.sourceforge.net/DTD/sodipodi-0.dtd"
   xmlns="http://www.w3.org/2000/svg"
   xmlns:svg="http://www.w3.org/2000/svg">
  <sodipodi:namedview
     id="namedview7"
     pagecolor="#505050"
     bordercolor="#ffffff"
     borderopacity="1"
     inkscape:pageshadow="0"
     inkscape:pageopacity="0"
     inkscape:pagecheckerboard="1"
     inkscape:document-units="mm"
     showgrid="false"
     units="px"
     inkscape:zoom="0.49887767"
     inkscape:cx="358.8054"
     inkscape:cy="113.25422"
     inkscape:window-width="1366"
     inkscape:window-height="745"
     inkscape:window-x="-8"
     inkscape:window-y="760"
     inkscape:window-maximized="1"
     inkscape:current-layer="layer1" />
  <defs
     id="defs2" />
  <g
     inkscape:label="Capa 1"
     inkscape:groupmode="layer"
     id="layer1">
    <path
       style="fill:#28a745;fill-opacity:1;stroke-width:0.226847"
       d="m 47.326882,117.25193 c -0.20601,-0.20602 -0.272217,-3.7791 -0.272217,-14.69213 V 88.13989 l -3.799689,-5.77448 -3.799689,-5.774482 -0.06533,-9.987616 c -0.03824,-5.851865 0.03069,-10.778344 0.166571,-11.897177 0.30213,-2.487843 1.189711,-4.385845 2.879391,-6.157298 1.466729,-1.537712 3.055007,-2.409758 5.964269,-3.274688 1.615054,-0.480158 1.981479,-0.522923 2.355089,-0.274854 0.302337,0.200746 1.578908,3.404041 4.031103,10.115256 1.973755,5.401813 3.708173,9.965505 3.85427,10.14154 0.421057,0.507344 1.512022,0.397081 1.883283,-0.190344 0.177425,-0.280724 1.87832,-4.797817 3.779782,-10.037986 1.901451,-5.240168 3.641845,-9.723602 3.867524,-9.963184 0.404063,-0.42894 0.442637,-0.425936 2.520459,0.196449 2.41694,0.723958 3.769029,1.362605 5.053069,2.386761 1.393739,1.111657 2.758124,3.103829 3.338755,4.875021 0.518497,1.581658 0.523719,1.709432 0.523719,12.83206 v 11.2345 l -3.79969,5.775261 -3.799688,5.775261 v 14.41991 c 0,10.91303 -0.06619,14.48611 -0.272217,14.69213 -0.392591,0.3926 -24.016162,0.3926 -24.408754,0 z M 10.281221,105.16591 C 8.9225177,104.41769 8.9443499,104.5985 8.9443499,94.093811 V 84.485192 L 6.443778,80.6637 C 5.0684627,78.56188 3.8883974,76.623827 3.821409,76.356926 3.7544227,76.090023 3.732594,72.304667 3.7729069,67.945022 c 0.07039,-7.612414 0.093539,-7.976081 0.5840019,-9.174283 1.1395816,-2.783997 3.0298971,-4.488207 6.1583912,-5.552084 2.781494,-0.945875 3.227063,-0.859145 5.955531,1.159241 1.287749,0.952616 2.450667,1.817613 2.584246,1.922216 0.149063,0.116723 1.244385,-0.551716 2.835587,-1.730464 2.896719,-2.145856 3.238298,-2.240331 5.620231,-1.554478 3.589478,1.033548 5.758473,2.997832 6.833271,6.188316 0.454905,1.350366 0.474,1.790697 0.412166,9.508766 l -0.06482,8.092832 -2.438605,3.69767 -2.438606,3.69767 -0.0017,9.232616 c -6.7e-4,5.411186 -0.09449,9.56822 -0.226493,10.04342 -0.123882,0.44596 -0.488713,1.05844 -0.810733,1.3611 l -0.585511,0.55027 -8.658861,0.0519 c -7.169684,0.0429 -8.76056,-0.005 -9.25019,-0.27377 z m 80.57681,0.0485 c -0.299893,-0.15411 -0.759257,-0.56829 -1.020817,-0.92037 -0.462947,-0.62318 -0.477309,-0.89854 -0.541458,-10.380828 l -0.06594,-9.740655 -2.429423,-3.683703 -2.429414,-3.683703 -0.06482,-8.092831 c -0.06182,-7.71807 -0.04278,-8.158401 0.412158,-9.508767 1.074796,-3.190485 3.2438,-5.154768 6.833269,-6.188317 2.381943,-0.685853 2.723526,-0.591377 5.620228,1.554479 1.591215,1.178747 2.686537,1.847187 2.835606,1.730463 0.13358,-0.104602 1.2965,-0.9696 2.58424,-1.922216 2.72847,-2.018385 3.17404,-2.105115 5.95554,-1.159241 3.12849,1.063878 5.01881,2.768087 6.15839,5.552085 0.49046,1.198201 0.51362,1.561868 0.584,9.174282 0.0404,4.359646 0.0185,8.145002 -0.0485,8.411904 -0.067,0.266901 -1.24706,2.204955 -2.62237,4.306775 l -2.50058,3.821492 v 9.608619 c 0,10.551122 0.025,10.350352 -1.3835,11.078752 -0.86112,0.44531 -17.017978,0.48306 -17.876638,0.0418 z m -31.8539,-44.798979 c -0.171561,-0.343107 -0.582954,-1.38944 -0.914218,-2.325183 l -0.60228,-1.701354 0.407064,-3.311993 0.407055,-3.31199 -0.973171,-1.448676 c -1.10796,-1.64931 -1.191982,-2.191096 -0.448159,-2.889884 0.463086,-0.435046 0.779578,-0.493237 2.682624,-0.493237 1.962008,0 2.202313,0.04758 2.650832,0.525026 0.701255,0.746445 0.622145,1.21753 -0.479941,2.858095 l -0.973172,1.448676 0.407056,3.31199 0.407063,3.311993 -0.602288,1.701354 c -0.739795,2.089805 -1.159737,2.949012 -1.441341,2.949012 -0.118352,0 -0.355563,-0.280723 -0.527124,-0.623829 z M 17.830926,50.147304 c -4.751329,-0.700951 -8.1881611,-5.387503 -7.518537,-10.252469 0.995754,-7.234363 10.02094,-10.317363 15.267492,-5.215372 6.316188,6.142152 0.997831,16.758231 -7.748955,15.467841 z m 80.441401,-0.0062 c -4.804465,-0.79806 -8.268603,-5.627517 -7.441877,-10.374922 0.686782,-3.943816 3.679232,-6.897629 7.641063,-7.542434 4.816197,-0.783857 9.606997,2.791579 10.278617,7.671064 0.83682,6.079671 -4.44815,11.247864 -10.477803,10.246292 z M 57.716483,39.919309 c -2.024751,-0.257271 -4.747929,-1.634987 -6.315098,-3.194942 -4.796268,-4.774189 -4.842403,-11.928585 -0.107541,-16.677733 4.62697,-4.640936 11.847859,-4.640936 16.474829,0 4.725945,4.740205 4.687544,11.917179 -0.0891,16.655237 -2.582988,2.562113 -6.12315,3.705359 -9.963083,3.217438 z M 19.734882,25.676949 c -0.365884,-0.248738 -0.796116,-0.688084 -0.95606,-0.976325 -0.365764,-0.659134 -0.38911,-2.099953 -0.04458,-2.750745 0.890496,-1.682026 6.002938,-7.041982 9.038413,-9.475999 6.991972,-5.6065487 15.296034,-9.1440523 25.06661,-10.6782734 2.373094,-0.3726409 11.010882,-0.3726409 13.383976,0 9.770577,1.5342211 18.074639,5.0717247 25.06661,10.6782734 3.035481,2.434017 8.14792,7.793973 9.038419,9.475999 0.34454,0.650792 0.32118,2.091611 -0.0446,2.750745 -0.469198,0.845538 -1.514692,1.400897 -2.642117,1.403479 -0.981253,0.0023 -1.077938,-0.06134 -2.495313,-1.641374 -2.415713,-2.692885 -6.369944,-6.577652 -7.826264,-7.688748 -8.279988,-6.317206 -17.585301,-9.4975361 -27.788775,-9.4975361 -10.203466,0 -19.50878,3.1803301 -27.788768,9.4975361 -1.532815,1.169455 -5.670257,5.244378 -7.718347,7.601709 -1.288626,1.483204 -1.411531,1.564989 -2.489773,1.656863 -0.871925,0.07429 -1.288086,-0.008 -1.799486,-0.355604 z"
       id="path3109" />
  </g>
</svg>
