<?xml version="1.0" encoding="UTF-8" standalone="no"?>
<!-- Created with Inkscape (http://www.inkscape.org/) -->

<svg
   width="130"
   height="130"
   viewBox="0 0 34.395833 34.395834"
   version="1.1"
   id="svg2202"
   inkscape:version="1.1 (c68e22c387, 2021-05-23)"
   sodipodi:docname="pAuditiva.svg"
   xmlns:inkscape="http://www.inkscape.org/namespaces/inkscape"
   xmlns:sodipodi="http://sodipodi.sourceforge.net/DTD/sodipodi-0.dtd"
   xmlns="http://www.w3.org/2000/svg"
   xmlns:svg="http://www.w3.org/2000/svg">
  <sodipodi:namedview
     id="namedview2204"
     pagecolor="#505050"
     bordercolor="#ffffff"
     borderopacity="1"
     inkscape:pageshadow="0"
     inkscape:pageopacity="0"
     inkscape:pagecheckerboard="1"
     inkscape:document-units="mm"
     showgrid="false"
     units="px"
     inkscape:zoom="2.7061715"
     inkscape:cx="68.547023"
     inkscape:cy="75.198486"
     inkscape:window-width="1366"
     inkscape:window-height="745"
     inkscape:window-x="-8"
     inkscape:window-y="760"
     inkscape:window-maximized="1"
     inkscape:current-layer="layer1" />
  <defs
     id="defs2199" />
  <g
     inkscape:label="Capa 1"
     inkscape:groupmode="layer"
     id="layer1">
    <path
       id="rect2464"
       style="font-variation-settings:normal;opacity:1;vector-effect:none;fill:#28a745;fill-opacity:1;fill-rule:evenodd;stroke-width:0.73274;stroke-linecap:butt;stroke-linejoin:miter;stroke-miterlimit:4;stroke-dasharray:none;stroke-dashoffset:0;stroke-opacity:1;-inkscape-stroke:none;stop-color:#000000;stop-opacity:1"
       d="m 17.697089,2.3611339 c -1.692439,-0.02159 -3.485642,0.173034 -4.783688,0.57464 -8.771403,2.71381 -13.0775073,12.3929881 -9.1601659,20.5909901 2.9990785,6.27631 9.7621779,9.61469 16.5684989,8.17935 1.018646,-0.21482 2.625985,-0.76803 3.571875,-1.22938 2.270869,-1.10762 5.439214,-4.23888 6.580992,-6.504 4.229452,-8.390623 -0.134779,-18.3304551 -9.292455,-21.1646001 -0.913429,-0.282692 -2.168718,-0.430213 -3.485057,-0.447 z m -0.708486,1.782836 c 9.418011,-0.150807 16.192871,9.9768081 11.823052,18.8339941 -1.4508,2.94064 -4.364672,5.52676 -7.431587,6.59546 -1.804768,0.62889 -5.426694,0.76991 -7.336505,0.28577 -3.095709,-0.78478 -6.127731,-2.96442 -7.843964,-5.63893 C 1.2366084,16.48611 6.0092128,5.7789119 15.072441,4.3145019 c 0.648843,-0.104839 1.288296,-0.160478 1.916162,-0.170532 z m 0.21911,4.581633 c -0.477158,-0.0014 -0.955305,0.04052 -1.429372,0.128157 -1.795933,0.331996 -2.728722,0.768725 -4.219898,1.9761061 -1.768808,1.432182 -2.7043032,3.157178 -3.2897203,6.06733 -0.8516223,4.233478 -0.6391566,5.501568 1.1162109,6.659028 1.0031284,0.66144 1.6931644,0.76498 1.8784384,0.28163 0.06972,-0.1819 0.03078,-1.75948 -0.08682,-3.50573 -0.117594,-1.74625 -0.221673,-3.316059 -0.230991,-3.488154 -0.0093,-0.172093 -0.254662,-0.388218 -0.545704,-0.480592 -0.6615188,-0.209957 -0.6677153,-0.677836 -0.0248,-1.928564 0.804312,-1.56473 2.255009,-2.707886 4.531505,-3.570324 2.168832,-0.82165 4.069845,-0.486683 6.924643,1.219565 0.976609,0.583695 1.421395,1.096404 2.060856,2.37608 l 0.815454,1.631942 -0.63717,0.212392 c -0.764611,0.25487 -0.970484,1.344816 -0.970484,5.131465 0,2.89152 0.191932,3.11898 1.785419,2.11305 1.078802,-0.68101 1.723933,-1.80446 1.742014,-3.03444 0.0235,-1.60093 -0.668483,-5.010252 -1.296561,-6.386686 -1.491965,-3.269671 -4.782931,-5.3923061 -8.123018,-5.4022551 z" />
  </g>
</svg>
