<?xml version="1.0" encoding="UTF-8" standalone="no"?>
<!-- Created with Inkscape (http://www.inkscape.org/) -->

<svg
   width="130"
   height="130"
   viewBox="0 0 34.395833 34.395834"
   version="1.1"
   id="svg2737"
   inkscape:version="1.1 (c68e22c387, 2021-05-23)"
   sodipodi:docname="pOcular.svg"
   xmlns:inkscape="http://www.inkscape.org/namespaces/inkscape"
   xmlns:sodipodi="http://sodipodi.sourceforge.net/DTD/sodipodi-0.dtd"
   xmlns="http://www.w3.org/2000/svg"
   xmlns:svg="http://www.w3.org/2000/svg">
  <sodipodi:namedview
     id="namedview2739"
     pagecolor="#505050"
     bordercolor="#ffffff"
     borderopacity="1"
     inkscape:pageshadow="0"
     inkscape:pageopacity="0"
     inkscape:pagecheckerboard="1"
     inkscape:document-units="mm"
     showgrid="false"
     units="px"
     inkscape:zoom="0.47838805"
     inkscape:cx="53.304007"
     inkscape:cy="84.659305"
     inkscape:window-width="1366"
     inkscape:window-height="745"
     inkscape:window-x="-8"
     inkscape:window-y="760"
     inkscape:window-maximized="1"
     inkscape:current-layer="layer1" />
  <defs
     id="defs2734" />
  <g
     inkscape:label="Capa 1"
     inkscape:groupmode="layer"
     id="layer1">
    <path
       id="rect3077"
       style="font-variation-settings:normal;opacity:1;vector-effect:none;fill:#28a745;fill-opacity:1;fill-rule:evenodd;stroke-width:0.73274;stroke-linecap:butt;stroke-linejoin:miter;stroke-miterlimit:4;stroke-dasharray:none;stroke-dashoffset:0;stroke-opacity:1;-inkscape-stroke:none;stop-color:#000000;stop-opacity:1"
       d="m 17.417009,2.3383309 c -1.97535,-0.0037 -4.04794,0.316892 -5.557285,0.920356 -4.4602582,1.783302 -7.442115,4.978948 -9.0144358,9.6603931 -0.7136792,2.124895 -0.6738144,6.156597 0.085265,8.609811 1.3394504,4.328866 4.5749871,7.779771 8.9074668,9.500711 2.830651,1.124384 5.469306,1.314289 8.752954,0.628904 5.363192,-1.119444 10.215642,-6.094296 11.263913,-11.547617 0.419619,-2.182914 0.175869,-5.85732 -0.520382,-7.838282 C 29.692455,7.6006819 25.631784,3.9382749 20.725332,2.7041999 19.752824,2.4595929 18.602218,2.3405569 17.417009,2.3383309 Z m -0.125058,1.850017 c 6.093097,0.05011 11.719179,4.461807 12.727905,11.1119821 0.970899,6.400763 -3.213685,12.789733 -9.438182,14.411007 -1.926992,0.501917 -5.081071,0.496184 -6.974253,-0.01292 -5.55068,-1.49266 -9.3522397,-6.599562 -9.3394815,-12.546004 0.010602,-4.949674 2.5892654,-9.2229811 6.9287755,-11.4814691 1.981235,-1.031127 4.064204,-1.499299 6.095236,-1.482596 z m -0.09457,8.2015651 c -6.526239,0 -7.4701687,0.05218 -7.8961584,0.4377 -0.2661206,0.240835 -0.4842087,0.645218 -0.4842087,0.898136 0,0.252921 -0.1785937,0.528087 -0.396875,0.611849 -0.5625888,0.215887 -0.5621019,3.032485 5.16e-4,3.248382 0.2183712,0.0838 0.6193896,0.645642 0.8914209,1.2485 1.2123682,2.686778 3.9634552,3.78619 6.3841052,2.551266 1.305311,-0.665919 1.675368,-0.661884 3.109888,0.03256 2.275308,1.101455 5.1586,0.02273 6.19342,-2.316654 0.288819,-0.652918 0.695147,-1.252022 0.902787,-1.331701 0.547579,-0.210127 0.530283,-3.221313 -0.01964,-3.43235 -0.218279,-0.08376 -0.396875,-0.338222 -0.396875,-0.565856 0,-0.227634 -0.196858,-0.632016 -0.437698,-0.898136 -0.404352,-0.446818 -1.005464,-0.483693 -7.850685,-0.483693 z m -5.695775,1.5875 h 5.554181 c 3.25891,0 5.762511,0.111358 6.057514,0.269235 0.714737,0.382516 1.117229,2.087517 0.812868,3.442168 -0.306369,1.363522 -1.150056,2.292374 -2.429824,2.675805 -0.859772,0.257591 -1.161929,0.209265 -2.494939,-0.40101 -1.855441,-0.849448 -1.86118,-0.849588 -3.609599,-0.03566 -1.616819,0.752668 -1.897187,0.779031 -3.030305,0.285771 -1.295972,-0.564147 -1.956988,-1.711516 -1.956988,-3.397211 0,-1.061063 0.145576,-1.630015 0.548288,-2.141987 z" />
  </g>
</svg>
