<?xml version="1.0" encoding="UTF-8" standalone="no"?>
<!-- Created with Inkscape (http://www.inkscape.org/) -->

<svg
   width="130"
   height="130"
   viewBox="0 0 34.395833 34.395834"
   version="1.1"
   id="svg2737"
   inkscape:version="1.1 (c68e22c387, 2021-05-23)"
   sodipodi:docname="pRespiratoria.svg"
   xmlns:inkscape="http://www.inkscape.org/namespaces/inkscape"
   xmlns:sodipodi="http://sodipodi.sourceforge.net/DTD/sodipodi-0.dtd"
   xmlns="http://www.w3.org/2000/svg"
   xmlns:svg="http://www.w3.org/2000/svg">
  <sodipodi:namedview
     id="namedview2739"
     pagecolor="#505050"
     bordercolor="#ffffff"
     borderopacity="1"
     inkscape:pageshadow="0"
     inkscape:pageopacity="0"
     inkscape:pagecheckerboard="1"
     inkscape:document-units="mm"
     showgrid="false"
     units="px"
     inkscape:zoom="1.9135522"
     inkscape:cx="30.048828"
     inkscape:cy="67.675186"
     inkscape:window-width="1366"
     inkscape:window-height="745"
     inkscape:window-x="-8"
     inkscape:window-y="760"
     inkscape:window-maximized="1"
     inkscape:current-layer="layer1" />
  <defs
     id="defs2734" />
  <g
     inkscape:label="Capa 1"
     inkscape:groupmode="layer"
     id="layer1">
    <path
       id="rect4128"
       style="font-variation-settings:normal;opacity:1;vector-effect:none;fill:#28a745;fill-opacity:1;fill-rule:evenodd;stroke-width:0.73274;stroke-linecap:butt;stroke-linejoin:miter;stroke-miterlimit:4;stroke-dasharray:none;stroke-dashoffset:0;stroke-opacity:1;-inkscape-stroke:none;stop-color:#000000;stop-opacity:1"
       d="M 17.199468,2.3168955 C 13.912757,2.3333241 10.644556,3.3723697 8.026901,5.3678721 -2.1012888,13.405481 2.5612017,29.386079 14.641484,31.998288 c 1.191403,0.230698 5.661639,-0.06663 6.905522,-0.459404 4.527285,-1.429573 8.318376,-5.054664 9.814388,-9.383923 0.893803,-2.586545 0.881333,-7.363874 -0.02584,-9.87795 C 30.043891,8.6973255 26.985197,5.2462225 23.769609,3.7400645 21.705641,2.773317 19.448269,2.3056549 17.199468,2.3168955 Z m -0.921391,2.0779092 c 0.426281,-0.00321 0.918403,0.00759 1.512052,0.027905 2.663508,0.09117 2.970363,0.1606275 4.879806,1.1043253 6.650633,3.28692 9.278882,10.647523 6.157246,17.243909 -2.492662,5.267296 -7.971767,8.153982 -13.77952,7.259505 C 1.3059038,26.40481 0.17209181,9.4474165 13.24467,4.8919319 14.31198,4.536754 14.999235,4.4044438 16.278077,4.3948047 Z m 9.071797,7.9654053 c -0.311967,-0.0071 -0.728422,0.148113 -1.282092,0.441834 -0.983147,0.521558 -3.605464,3.140993 -3.605464,3.60133 0,0.487499 0.835124,-0.05881 2.40037,-1.56993 0.979765,-0.945885 1.914602,-1.719791 2.077392,-1.719791 0.16279,0 0.425108,0.283595 0.58291,0.629935 0.599853,1.316534 -0.969321,4.6787 -3.133142,6.713286 -0.746288,0.701717 -0.584655,1.275431 0.221692,0.787032 0.295399,-0.178921 1.071019,-1.031617 1.723926,-1.894975 1.60928,-2.128 1.985355,-3.123789 1.892391,-5.01003 -0.06705,-1.360447 -0.282409,-1.965203 -0.877983,-1.978691 z M 9.1860036,12.38967 c -0.8184026,-0.0129 -1.2195813,0.767392 -1.1089765,2.296501 0.136352,1.885033 0.9815505,3.622682 2.6504839,5.448763 1.302448,1.425084 1.797307,1.738603 1.797307,1.139981 0,-0.16784 -0.597335,-0.936825 -1.327568,-1.708939 -1.6384017,-1.732369 -2.4297924,-3.473709 -2.3228555,-5.111833 0.11552,-1.769608 0.657601,-1.697294 2.7171465,0.362252 1.551135,1.551135 2.256193,2.045722 2.256193,1.582849 0,-0.311913 -1.912065,-2.474624 -2.758488,-3.120223 C 10.318048,12.6908 9.6770448,12.39741 9.1860036,12.38967 Z m 8.0181154,2.146639 c -0.663202,0.0237 -1.33486,0.489776 -2.372982,1.593184 -2.015221,2.141953 -2.49891,4.368191 -1.334802,6.144845 1.029247,1.57083 4.055508,2.183769 5.911783,1.197343 1.899375,-1.009329 2.60182,-3.119206 1.731678,-5.20175 -0.50227,-1.202101 -2.645654,-3.474252 -3.473173,-3.681946 -0.156525,-0.03929 -0.309458,-0.05714 -0.462504,-0.05168 z m -0.04754,1.571997 c 0.185136,4.74e-4 0.375062,0.06248 0.637171,0.171049 1.001637,0.414891 1.887698,1.332218 1.286743,1.332218 -0.223017,0 -0.55009,-0.173893 -0.726571,-0.386539 -0.564498,-0.68018 -1.292148,-0.736047 -2.10013,-0.160714 -0.687876,0.489812 -1.347721,0.71094 -1.347721,0.451135 0,-0.05297 0.474562,-0.425292 1.054716,-0.82734 0.592185,-0.410385 0.887233,-0.580599 1.195792,-0.579809 z"
       sodipodi:nodetypes="scccscssscssccscssssssssscssssssssssssssssssssssssss" />
  </g>
</svg>
