<?xml version="1.0" encoding="UTF-8" standalone="no"?>
<!-- Created with Inkscape (http://www.inkscape.org/) -->

<svg
   width="450"
   height="450"
   viewBox="0 0 119.06249 119.0625"
   version="1.1"
   id="svg5"
   inkscape:version="1.1 (c68e22c387, 2021-05-23)"
   sodipodi:docname="productos.svg"
   xmlns:inkscape="http://www.inkscape.org/namespaces/inkscape"
   xmlns:sodipodi="http://sodipodi.sourceforge.net/DTD/sodipodi-0.dtd"
   xmlns="http://www.w3.org/2000/svg"
   xmlns:svg="http://www.w3.org/2000/svg">
  <sodipodi:namedview
     id="namedview7"
     pagecolor="#505050"
     bordercolor="#ffffff"
     borderopacity="1"
     inkscape:pageshadow="0"
     inkscape:pageopacity="0"
     inkscape:pagecheckerboard="1"
     inkscape:document-units="mm"
     showgrid="false"
     units="px"
     inkscape:zoom="0.49887767"
     inkscape:cx="327.73566"
     inkscape:cy="429.96513"
     inkscape:window-width="1366"
     inkscape:window-height="745"
     inkscape:window-x="-8"
     inkscape:window-y="760"
     inkscape:window-maximized="1"
     inkscape:current-layer="layer1" />
  <defs
     id="defs2" />
  <g
     inkscape:label="Capa 1"
     inkscape:groupmode="layer"
     id="layer1">
    <path
       style="fill:#28a745;fill-opacity:1;stroke-width:0.264583"
       d="m 19.711464,116.2703 c -1.101411,-0.56569 -10.0962779,-9.58025 -10.5832049,-10.60637 -0.306216,-0.64531 -0.397002,-1.90144 -0.397002,-5.49299 v -4.656371 h -3.583901 c -3.4523522,0 -3.6077392,-0.0238 -4.2333332,-0.64943 -0.644163,-0.64416 -0.649432,-0.69041 -0.649432,-5.700565 0,-5.01016 0.0053,-5.0564 0.649432,-5.70056 0.625054,-0.62506 0.782836,-0.64944 4.2032912,-0.64944 h 3.55386 l 0.187233,-1.24856 c 0.394971,-2.63385 2.1569039,-5.01219 4.7103399,-6.35823 l 1.380219,-0.72758 h 44.582288 44.582286 l 1.38021,0.72758 c 2.5574,1.34812 4.3216,3.76591 4.72868,6.4805 l 0.1689,1.12629 h 3.55386 c 3.42046,0 3.57824,0.0244 4.20329,0.64944 0.64416,0.64416 0.64943,0.6904 0.64943,5.70056 0,5.010155 -0.005,5.056405 -0.64943,5.700565 -0.6256,0.62559 -0.78098,0.64943 -4.23333,0.64943 h -3.5839 v 4.656371 c 0,3.62213 -0.0895,4.84498 -0.40296,5.50554 -0.52997,1.11681 -9.83223,10.35836 -10.792911,10.72246 -0.49231,0.18659 -5.32276,0.2823 -14.247515,0.2823 -14.9227,0 -14.65458,0.0284 -15.96992,-1.69355 -0.3445,-0.451 -1.55526,-2.07015 -2.69058,-3.59812 -2.31334,-3.1134 -6.09114,-7.14375 -6.69611,-7.14375 -0.60497,0 -4.38278,4.03035 -6.696117,7.14375 -1.13532,1.52797 -2.34608,3.14712 -2.69057,3.59812 -1.31617,1.72305 -1.03785,1.69372 -16.0533,1.69192 -11.71445,-10e-4 -13.6954,-0.0578 -14.379803,-0.40931 z m 26.602334,-10.36305 c 2.42123,-3.27066 6.081349,-7.007551 8.349356,-8.524481 3.59858,-2.40688 6.13761,-2.40688 9.7362,0 2.268,1.51693 5.92812,5.253821 8.34936,8.524481 l 1.70808,2.30732 h 10.72319 10.723195 l 2.9807,-2.97225 2.980701,-2.97224 v -9.727746 -9.72776 H 59.531254 17.197923 v 9.7193 9.719296 l 2.972244,2.9807 2.972251,2.9807 h 10.73165 10.73165 z M 4.4979241,65.535334 c -1.2986342,-0.40932 -3.5133652,-2.70267 -3.9115692,-4.05041 -0.732983,-2.48083 -0.216221,-4.4584 1.653646,-6.32827 1.5532512,-1.55325 2.6970982,-1.97541 5.3524152,-1.97541 h 1.842474 l 0.460666,-2.18281 c 2.9330929,-13.8981 11.9809419,-26.16432 24.6797719,-33.45852 1.57262,-0.90331 2.93169,-1.55815 3.02018,-1.45521 0.0885,0.10295 0.4306,3.1042 0.76026,6.66946 0.32966,3.56526 0.74773,6.83948 0.92905,7.27604 0.46904,1.12935 1.26112,1.74333 2.45576,1.90357 1.87723,0.25179 3.49266,-1.13577 3.51002,-3.01491 0.004,-0.4074 -0.494561,-5.959 -1.1074,-12.33687 -1.09256,-11.3704978 -1.1049,-11.6134858 -0.63414,-12.4876278 0.93571,-1.737515 0.70751,-1.713116 16.022196,-1.713116 15.31497,0 15.08646,-0.02444 16.02234,1.713385 0.47097,0.874532 0.45869,1.115778 -0.6357,12.4876288 -0.61378,6.37772 -1.11217,11.9292 -1.10755,12.3366 0.0396,3.48974 5.02754,4.20784 6.07079,0.874 0.14131,-0.45155 0.51215,-3.61896 0.82411,-7.0387 0.31196,-3.41974 0.61608,-6.37512 0.67583,-6.56751 0.20534,-0.66123 6.87527,3.38055 10.46666,6.34248 4.077505,3.36286 8.387476,8.38234 11.211626,13.05732 2.64164,4.37286 5.07231,10.50643 6.10759,15.41198 l 0.46066,2.18281 h 1.84248 c 2.37381,0 3.63137,0.39083 4.98458,1.54912 3.60325,3.08425 2.83846,8.4725 -1.49322,10.5203 l -1.32291,0.62541 -54.107286,-0.0244 C 20.884588,65.834274 5.1593591,65.743844 4.4979241,65.535354 Z"
       id="path1010" />
  </g>
</svg>
