<?xml version="1.0" encoding="UTF-8" standalone="no"?>
<!-- Created with Inkscape (http://www.inkscape.org/) -->

<svg
   width="280"
   height="280"
   viewBox="0 0 74.083331 74.083335"
   version="1.1"
   id="svg5"
   inkscape:version="1.1 (c68e22c387, 2021-05-23)"
   sodipodi:docname="subir.svg"
   xmlns:inkscape="http://www.inkscape.org/namespaces/inkscape"
   xmlns:sodipodi="http://sodipodi.sourceforge.net/DTD/sodipodi-0.dtd"
   xmlns="http://www.w3.org/2000/svg"
   xmlns:svg="http://www.w3.org/2000/svg">
  <sodipodi:namedview
     id="namedview7"
     pagecolor="#505050"
     bordercolor="#ffffff"
     borderopacity="1"
     inkscape:pageshadow="0"
     inkscape:pageopacity="0"
     inkscape:pagecheckerboard="1"
     inkscape:document-units="mm"
     showgrid="false"
     units="px"
     width="300px"
     inkscape:zoom="0.49887767"
     inkscape:cx="327.73566"
     inkscape:cy="231.51969"
     inkscape:window-width="1366"
     inkscape:window-height="745"
     inkscape:window-x="-8"
     inkscape:window-y="760"
     inkscape:window-maximized="1"
     inkscape:current-layer="layer1" />
  <defs
     id="defs2" />
  <g
     inkscape:label="Capa 1"
     inkscape:groupmode="layer"
     id="layer1">
    <g
       id="g1090"
       transform="matrix(0.5,0,0,-0.5,-17.051603,103.39758)"
       style="fill:#28a745;fill-opacity:1">
      <path
         style="fill:#28a745;stroke-width:0.264583;fill-opacity:1"
         d="m 103.11616,198.55438 c 0.191,-0.0764 0.4192,-0.067 0.50712,0.0209 0.0879,0.0879 -0.0683,0.15046 -0.34726,0.13897 -0.30823,-0.0127 -0.37092,-0.0754 -0.15986,-0.15985 z m 9.78959,0 c 0.19099,-0.0764 0.4192,-0.067 0.50712,0.0209 0.0879,0.0879 -0.0684,0.15046 -0.34727,0.13897 -0.30823,-0.0127 -0.37092,-0.0754 -0.15985,-0.15985 z m 38.1496,-16.05874 c 0,-0.0549 0.20836,-0.2633 0.46302,-0.46302 0.41965,-0.32911 0.42901,-0.31975 0.0999,0.0999 -0.34564,0.44073 -0.56292,0.58089 -0.56292,0.36313 z m -86.552491,-0.62771 c -0.329107,-0.41964 -0.319749,-0.429 0.0999,-0.0999 0.254661,0.19973 0.463021,0.40808 0.463021,0.46303 0,0.21776 -0.217272,0.0776 -0.562916,-0.36313 z m -5.027083,-5.02708 c -0.329107,-0.41965 -0.319749,-0.42901 0.09989,-0.0999 0.254661,0.19972 0.463021,0.40808 0.463021,0.46302 0,0.21776 -0.217272,0.0776 -0.562916,-0.36312 z m 97.135824,0.0985 c 0,-0.0549 0.20836,-0.2633 0.46302,-0.46302 0.41965,-0.32911 0.42901,-0.31975 0.0999,0.0999 -0.34564,0.44073 -0.56292,0.58089 -0.56292,0.36313 z m -48.20377,-9.34126 c 0.19099,-0.0764 0.4192,-0.067 0.50712,0.0209 0.0879,0.0879 -0.0684,0.15046 -0.34727,0.13897 -0.30822,-0.0127 -0.37092,-0.0754 -0.15985,-0.15985 z m 2.16628,-0.71291 c 0,-0.0549 0.20836,-0.2633 0.46302,-0.46302 0.41964,-0.32911 0.429,-0.31975 0.0999,0.0999 -0.34564,0.44073 -0.56291,0.58089 -0.56291,0.36312 z m -6.11917,-2.21521 c -0.32911,-0.41964 -0.31975,-0.429 0.0999,-0.0999 0.25466,0.19972 0.46302,0.40808 0.46302,0.46302 0,0.21776 -0.21728,0.0776 -0.56292,-0.36313 z m 8.23583,-0.16604 c 0,-0.0549 0.20836,-0.2633 0.46302,-0.46302 0.41965,-0.32911 0.42901,-0.31975 0.0999,0.0999 -0.34564,0.44073 -0.56292,0.58089 -0.56292,0.36312 z m -10.08791,-1.95062 c -0.32911,-0.41965 -0.31975,-0.42901 0.0999,-0.0999 0.25466,0.19972 0.46302,0.40808 0.46302,0.46302 0,0.21777 -0.21727,0.0776 -0.56291,-0.36312 z m 11.94,-0.16604 c 0,-0.0549 0.20836,-0.2633 0.46302,-0.46302 0.41964,-0.32911 0.429,-0.31975 0.0999,0.0999 -0.34564,0.44073 -0.56291,0.58089 -0.56291,0.36313 z m -14.05667,-2.21521 c -0.32911,-0.41965 -0.31975,-0.42901 0.0999,-0.0999 0.44073,0.34565 0.58088,0.56292 0.36312,0.56292 -0.0549,0 -0.2633,-0.20836 -0.46302,-0.46302 z m 16.17333,-0.16604 c 0,-0.0549 0.20836,-0.2633 0.46302,-0.46302 0.41965,-0.32911 0.42901,-0.31975 0.0999,0.0999 -0.34564,0.44073 -0.56292,0.58089 -0.56292,0.36313 z m -18.025414,-1.95063 c -0.329107,-0.41964 -0.319749,-0.429 0.0999,-0.0999 0.254662,0.19972 0.463021,0.40808 0.463021,0.46302 0,0.21776 -0.217273,0.0776 -0.562917,-0.36313 z m 19.877504,-0.16604 c 0,-0.0549 0.20835,-0.2633 0.46302,-0.46302 0.41964,-0.32911 0.429,-0.31975 0.0999,0.0999 -0.34564,0.44073 -0.56291,0.58089 -0.56291,0.36313 z m -21.99417,-2.21521 c -0.329108,-0.41964 -0.319749,-0.429 0.0999,-0.0999 0.254661,0.19972 0.463021,0.40808 0.463021,0.46302 0,0.21776 -0.217274,0.0776 -0.562917,-0.36313 z m 24.11083,-0.16604 c 0,-0.0549 0.20836,-0.2633 0.46302,-0.46302 0.41965,-0.32911 0.42901,-0.31975 0.0999,0.0999 -0.34564,0.44072 -0.56292,0.58088 -0.56292,0.36312 z m 1.85209,-2.11667 c 0,-0.0549 0.20835,-0.2633 0.46302,-0.46302 0.41964,-0.3291 0.429,-0.31975 0.0999,0.0999 -0.34564,0.44073 -0.56291,0.58089 -0.56291,0.36312 z m -29.93167,-2.2152 c -0.329107,-0.41965 -0.319749,-0.42901 0.0999,-0.0999 0.254661,0.19972 0.463021,0.40808 0.463021,0.46302 0,0.21776 -0.217273,0.0776 -0.562917,-0.36312 z m 32.04833,-0.16605 c 0,-0.0549 0.20836,-0.2633 0.46302,-0.46302 0.41965,-0.3291 0.42901,-0.31975 0.0999,0.0999 -0.34564,0.44073 -0.56292,0.58089 -0.56292,0.36312 z m -36.01708,-4.33187 c -0.329107,-0.41965 -0.319749,-0.429 0.0999,-0.0999 0.44073,0.34565 0.580888,0.56292 0.363125,0.56292 -0.05494,0 -0.2633,-0.20836 -0.463021,-0.46302 z m 39.98583,-0.16604 c 0,-0.0549 0.20836,-0.2633 0.46302,-0.46302 0.41965,-0.32911 0.42901,-0.31975 0.0999,0.0999 -0.34565,0.44073 -0.56292,0.58089 -0.56292,0.36313 z m -43.95458,-4.33188 c -0.329107,-0.41964 -0.319749,-0.429 0.0999,-0.0999 0.254662,0.19972 0.463021,0.40808 0.463021,0.46302 0,0.21776 -0.217273,0.0776 -0.562917,-0.36313 z m 47.92333,-0.16604 c 0,-0.0549 0.20836,-0.2633 0.46302,-0.46302 0.41965,-0.32911 0.42901,-0.31975 0.0999,0.0999 -0.34565,0.44073 -0.56292,0.58088 -0.56292,0.36312 z m -51.89208,-4.33187 c -0.329107,-0.41965 -0.319749,-0.42901 0.0999,-0.0999 0.254661,0.19972 0.46302,0.40808 0.46302,0.46302 0,0.21776 -0.217273,0.0776 -0.562917,-0.36312 z m 55.86083,-0.16605 c 0,-0.0549 0.20836,-0.2633 0.46302,-0.46302 0.41965,-0.3291 0.42901,-0.31975 0.0999,0.0999 -0.34565,0.44073 -0.56292,0.58089 -0.56292,0.36312 z m -94.414468,-1.75218 c 0,-0.36381 0.06005,-0.51263 0.133452,-0.33073 0.0734,0.1819 0.0734,0.47955 0,0.66146 -0.0734,0.1819 -0.133452,0.0331 -0.133452,-0.33073 z m 132.027078,0 c 0,-0.36381 0.06,-0.51263 0.13345,-0.33073 0.0734,0.1819 0.0734,0.47955 0,0.66146 -0.0734,0.1819 -0.13345,0.0331 -0.13345,-0.33073 z m -95.325523,-0.19844 c -0.329107,-0.41965 -0.319749,-0.429 0.0999,-0.0999 0.254662,0.19972 0.463021,0.40808 0.463021,0.46302 0,0.21777 -0.217273,0.0776 -0.562917,-0.36312 z m 59.564993,-0.16604 c 0,-0.0549 0.20836,-0.2633 0.46303,-0.46302 0.41964,-0.32911 0.429,-0.31975 0.0999,0.0999 -0.34564,0.44073 -0.56292,0.58089 -0.56292,0.36313 z M 76.673691,133.1846 c -0.329108,-0.41965 -0.319749,-0.429 0.0999,-0.0999 0.254661,0.19972 0.463021,0.40808 0.463021,0.46302 0,0.21777 -0.217274,0.0776 -0.562917,-0.36312 z m 63.798329,-0.16604 c 0,-0.0549 0.20836,-0.2633 0.46302,-0.46302 0.41965,-0.32911 0.42901,-0.31975 0.0999,0.0999 -0.34565,0.44073 -0.56292,0.58089 -0.56292,0.36313 z m -65.650413,-1.95063 c -0.329107,-0.41964 -0.319749,-0.429 0.0999,-0.0999 0.254662,0.19972 0.463021,0.40808 0.463021,0.46302 0,0.21776 -0.217273,0.0776 -0.562917,-0.36313 z m 67.502493,-0.16604 c 0,-0.0549 0.20836,-0.2633 0.46303,-0.46302 0.41964,-0.32911 0.429,-0.31975 0.0999,0.0999 -0.34564,0.44073 -0.56292,0.58088 -0.56292,0.36312 z m -69.619159,-2.21521 c -0.329107,-0.41964 -0.319749,-0.429 0.0999,-0.0999 0.254661,0.19972 0.463021,0.40808 0.463021,0.46302 0,0.21776 -0.217273,0.0776 -0.562917,-0.36313 z m 73.365109,-3.24114 c 0,-0.3638 0.06,-0.51263 0.13345,-0.33073 0.0734,0.1819 0.0734,0.47956 0,0.66146 -0.0734,0.1819 -0.13345,0.0331 -0.13345,-0.33073 z m 28.04583,0 c 0,-0.3638 0.06,-0.51263 0.13345,-0.33073 0.0734,0.1819 0.0734,0.47956 0,0.66146 -0.0734,0.1819 -0.13345,0.0331 -0.13345,-0.33073 z M 42.067914,125.2912 c 0.0127,-0.30823 0.07539,-0.37092 0.159852,-0.15986 0.07643,0.191 0.06703,0.4192 -0.02089,0.50712 -0.08792,0.0879 -0.150452,-0.0683 -0.138964,-0.34726 z M 61.758483,81.789289 c 0.716664,-0.727604 1.362556,-1.322916 1.435316,-1.322916 0.07276,0 -0.454069,0.595312 -1.170732,1.322916 -0.716664,0.727605 -1.362556,1.322917 -1.435316,1.322917 -0.07276,0 0.454069,-0.595312 1.170732,-1.322917 z m 92.331297,-0.330729 -1.57922,-1.653645 1.65365,1.579217 c 1.53609,1.466958 1.77472,1.728074 1.57922,1.728074 -0.0409,0 -0.78508,-0.74414 -1.65365,-1.653646 z M 65.330358,78.514395 c 0,-0.05494 0.208359,-0.263302 0.463021,-0.463021 0.419644,-0.329107 0.429002,-0.319749 0.0999,0.0999 -0.345644,0.440729 -0.562916,0.580887 -0.562916,0.363126 z"
         id="path1104" />
      <path
         style="fill:#28a745;stroke-width:0.264583;fill-opacity:1"
         d="m 103.90991,198.55438 c 0.191,-0.0764 0.4192,-0.067 0.50712,0.0209 0.0879,0.0879 -0.0683,0.15046 -0.34726,0.13897 -0.30823,-0.0127 -0.37092,-0.0754 -0.15986,-0.15985 z m 8.20209,0 c 0.19099,-0.0764 0.4192,-0.067 0.50712,0.0209 0.0879,0.0879 -0.0684,0.15046 -0.34727,0.13897 -0.30823,-0.0127 -0.37092,-0.0754 -0.15985,-0.15985 z m 39.7371,-16.85249 c 0,-0.0549 0.20836,-0.2633 0.46302,-0.46302 0.41965,-0.32911 0.42901,-0.31975 0.0999,0.0999 -0.34564,0.44073 -0.56292,0.58089 -0.56292,0.36313 z m -88.139991,-0.62771 c -0.329107,-0.41964 -0.319749,-0.429 0.0999,-0.0999 0.254661,0.19973 0.463021,0.40808 0.463021,0.46303 0,0.21776 -0.217272,0.0776 -0.562916,-0.36313 z m 92.108741,-3.34104 c 0,-0.0549 0.20836,-0.2633 0.46302,-0.46302 0.41965,-0.32911 0.42901,-0.31975 0.0999,0.0999 -0.34564,0.44073 -0.56292,0.58089 -0.56292,0.36313 z m -49.63451,-11.07875 -0.50403,-0.59531 0.59532,0.50403 c 0.55944,0.47366 0.71576,0.68659 0.50403,0.68659 -0.0502,0 -0.3181,-0.26789 -0.59532,-0.59531 z M 42.067914,134.8162 c 0.0127,-0.30823 0.07539,-0.37092 0.159852,-0.15986 0.07643,0.191 0.06703,0.4192 -0.02089,0.50712 -0.08792,0.0879 -0.150452,-0.0683 -0.138964,-0.34726 z m 132.027076,0 c 0.0127,-0.30823 0.0754,-0.37092 0.15985,-0.15986 0.0764,0.191 0.067,0.4192 -0.0209,0.50712 -0.0879,0.0879 -0.15046,-0.0683 -0.13897,-0.34726 z M 42.088802,126.23929 c 0,-0.3638 0.06005,-0.51263 0.133452,-0.33073 0.0734,0.1819 0.0734,0.47956 0,0.66146 -0.0734,0.1819 -0.133452,0.0331 -0.133452,-0.33073 z m 132.006188,0.11024 c 0.0127,-0.30823 0.0754,-0.37092 0.15985,-0.15985 0.0764,0.19099 0.067,0.4192 -0.0209,0.50712 -0.0879,0.0879 -0.15046,-0.0684 -0.13897,-0.34727 z M 70.928383,125.44554 c 0,-0.3638 0.06006,-0.51263 0.133453,-0.33073 0.0734,0.1819 0.0734,0.47956 0,0.66146 -0.0734,0.1819 -0.133453,0.0331 -0.133453,-0.33073 z m 5.064445,-3.37219 c 1.280453,-0.0486 3.304516,-0.0484 4.497916,5.3e-4 1.193403,0.0489 0.145759,0.0887 -2.328095,0.0884 -2.473854,-2.6e-4 -3.450272,-0.0403 -2.169821,-0.0889 z m 60.179712,5e-5 c 1.34607,-0.048 3.54873,-0.048 4.89479,0 1.34607,0.048 0.24474,0.0873 -2.44739,0.0873 -2.69214,0 -3.79347,-0.0393 -2.4474,-0.0873 z"
         id="path1102" />
      <path
         style="fill:#28a745;stroke-width:0.264583;fill-opacity:1"
         d="m 153.03973,180.47887 c 0.26339,-0.29104 0.53842,-0.52917 0.61118,-0.52917 0.0728,0 -0.0832,0.23813 -0.3466,0.52917 -0.26339,0.29104 -0.53842,0.52916 -0.61118,0.52916 -0.0728,0 0.0832,-0.23812 0.3466,-0.52916 z m -91.157993,-1.25677 -1.44617,-1.52136 1.521354,1.44617 c 1.413386,1.34354 1.642558,1.59654 1.44617,1.59654 -0.04135,0 -0.725961,-0.68461 -1.521354,-1.52135 z m 93.274663,-0.8599 c 0.26339,-0.29104 0.53842,-0.52917 0.61118,-0.52917 0.0728,0 -0.0832,0.23813 -0.3466,0.52917 -0.26339,0.29104 -0.53842,0.52917 -0.61118,0.52917 -0.0728,0 0.0832,-0.23813 0.3466,-0.52917 z M 42.067914,134.02245 c 0.0127,-0.30823 0.07539,-0.37092 0.159852,-0.15986 0.07643,0.191 0.06703,0.4192 -0.02089,0.50712 -0.08792,0.0879 -0.150452,-0.0684 -0.138964,-0.34726 z m 132.027076,0 c 0.0127,-0.30823 0.0754,-0.37092 0.15985,-0.15986 0.0764,0.191 0.067,0.4192 -0.0209,0.50712 -0.0879,0.0879 -0.15046,-0.0684 -0.13897,-0.34726 z m 0,-6.87917 c 0.0127,-0.30823 0.0754,-0.37092 0.15985,-0.15985 0.0764,0.19099 0.067,0.4192 -0.0209,0.50712 -0.0879,0.0879 -0.15046,-0.0684 -0.13897,-0.34727 z"
         id="path1100" />
      <path
         style="fill:#28a745;stroke-width:0.264583;fill-opacity:1"
         d="m 105.21629,198.55989 c 0.1819,-0.0734 0.47956,-0.0734 0.66146,0 0.1819,0.0734 0.0331,0.13345 -0.33073,0.13345 -0.3638,0 -0.51263,-0.0601 -0.33073,-0.13345 z m 5.29167,0 c 0.1819,-0.0734 0.47956,-0.0734 0.66146,0 0.1819,0.0734 0.0331,0.13345 -0.33073,0.13345 -0.3638,0 -0.51263,-0.0601 -0.33073,-0.13345 z m 43.5901,-19.13936 c 0.26339,-0.29104 0.53842,-0.52916 0.61118,-0.52916 0.0728,0 -0.0832,0.23812 -0.34659,0.52916 -0.26339,0.29105 -0.53843,0.52917 -0.61119,0.52917 -0.0728,0 0.0832,-0.23812 0.3466,-0.52917 z M 85.565905,92.769497 c 1.3e-5,-14.406561 0.03204,-20.261328 0.07118,-13.010591 0.03913,7.250736 0.03912,19.037924 -2.4e-5,26.193744 -0.03915,7.15583 -0.07117,1.22341 -0.07115,-13.183153 z"
         id="path1098" />
      <path
         style="fill:#28a745;stroke-width:0.264583;fill-opacity:1"
         d="m 106.27463,198.55989 c 0.1819,-0.0734 0.47955,-0.0734 0.66146,0 0.1819,0.0734 0.0331,0.13345 -0.33073,0.13345 -0.36381,0 -0.51263,-0.0601 -0.33073,-0.13345 z m 3.175,0 c 0.1819,-0.0734 0.47955,-0.0734 0.66146,0 0.1819,0.0734 0.0331,0.13345 -0.33073,0.13345 -0.36381,0 -0.51263,-0.0601 -0.33073,-0.13345 z m -67.360828,-65.9706 c 0,-0.36381 0.06005,-0.51263 0.133452,-0.33073 0.0734,0.1819 0.0734,0.47956 0,0.66146 -0.0734,0.1819 -0.133452,0.0331 -0.133452,-0.33073 z M 174.12568,132.457 c 0.005,-0.43657 0.0647,-0.58313 0.13178,-0.3257 0.0671,0.25743 0.0627,0.61462 -0.01,0.79375 -0.0725,0.17913 -0.12736,-0.0315 -0.12197,-0.46805 z M 42.098606,128.48825 c 0.0054,-0.43657 0.06469,-0.58313 0.131774,-0.3257 0.06708,0.25743 0.06267,0.61462 -0.0098,0.79375 -0.07248,0.17913 -0.127362,-0.0315 -0.12197,-0.46805 z m 132.017274,0.13229 c 0,-0.3638 0.06,-0.51263 0.13345,-0.33073 0.0734,0.1819 0.0734,0.47956 0,0.66146 -0.0734,0.1819 -0.13345,0.0331 -0.13345,-0.33073 z m -43.3062,-35.718751 c 0,-14.479322 0.032,-20.402681 0.0711,-13.16302 0.0391,7.239661 0.0391,19.086379 0,26.326041 -0.0391,7.23966 -0.0711,1.3163 -0.0711,-13.163021 z M 60.303275,83.541478 c 0,-0.05494 0.208359,-0.263302 0.463021,-0.463021 0.419644,-0.329107 0.429002,-0.319749 0.0999,0.0999 -0.345644,0.440729 -0.562916,0.580887 -0.562916,0.363126 z m 3.307292,-3.339688 c 0.263389,-0.291042 0.53842,-0.529167 0.61118,-0.529167 0.07276,0 -0.08321,0.238125 -0.346597,0.529167 -0.263389,0.291041 -0.538421,0.529166 -0.611181,0.529166 -0.07276,0 0.08321,-0.238125 0.346598,-0.529166 z"
         id="path1096" />
      <path
         style="fill:#28a745;stroke-width:0.264583;fill-opacity:1"
         d="m 107.3495,198.55438 c 0.19099,-0.0764 0.41919,-0.067 0.50712,0.0209 0.0879,0.0879 -0.0684,0.15046 -0.34727,0.13897 -0.30823,-0.0127 -0.37092,-0.0754 -0.15985,-0.15985 z m 1.32291,0 c 0.191,-0.0764 0.4192,-0.067 0.50712,0.0209 0.0879,0.0879 -0.0683,0.15046 -0.34726,0.13897 -0.30823,-0.0127 -0.37092,-0.0754 -0.15986,-0.15985 z M 42.088802,131.53095 c 0,-0.3638 0.06005,-0.51263 0.133452,-0.33073 0.0734,0.18191 0.0734,0.47956 0,0.66146 -0.0734,0.1819 -0.133452,0.0331 -0.133452,-0.33073 z m 132.006188,-0.15434 c 0.0127,-0.30822 0.0754,-0.37092 0.15985,-0.15985 0.0764,0.191 0.067,0.4192 -0.0209,0.50712 -0.0879,0.0879 -0.15046,-0.0684 -0.13897,-0.34727 z M 42.088802,129.67887 c 0,-0.3638 0.06005,-0.51263 0.133452,-0.33073 0.0734,0.1819 0.0734,0.47956 0,0.66146 -0.0734,0.1819 -0.133452,0.0331 -0.133452,-0.33073 z m 132.027078,0 c 0,-0.3638 0.06,-0.51263 0.13345,-0.33073 0.0734,0.1819 0.0734,0.47956 0,0.66146 -0.0734,0.1819 -0.13345,0.0331 -0.13345,-0.33073 z m -20.0261,-47.955726 -1.57922,-1.653646 1.65365,1.579218 c 1.53609,1.466958 1.77472,1.728073 1.57922,1.728073 -0.0409,0 -0.78508,-0.74414 -1.65365,-1.653645 z m -92.066713,0.06614 c 0.568389,-0.582083 1.092966,-1.058333 1.165726,-1.058333 0.07276,0 -0.332754,0.47625 -0.901143,1.058333 -0.568389,0.582084 -1.092966,1.058334 -1.165727,1.058334 -0.07276,0 0.332754,-0.47625 0.901144,-1.058334 z"
         id="path1094" />
      <path
         style="fill:#28a745;stroke-width:0.264583;fill-opacity:1"
         d="m 104.48869,198.4329 c -8.102955,-0.38548 -16.411421,-2.52709 -24.077083,-6.20616 -22.111434,-10.61219 -36.865665,-33.03409 -38.057014,-57.83496 -0.60276,-12.54793 1.632638,-23.60499 6.970501,-34.478533 3.485912,-7.101012 7.87707,-13.160821 13.528466,-18.669322 4.983238,-4.857237 9.572457,-8.241203 15.176797,-11.190962 2.363227,-1.243848 6.948316,-3.344923 7.299487,-3.344923 0.05987,0 0.108846,11.912162 0.108846,26.471471 0,29.063579 0.0832,27.565609 -1.57884,28.425089 -0.609854,0.31537 -1.813427,0.40219 -5.617916,0.40525 -5.338598,0.004 -5.770686,0.10416 -6.752071,1.56044 -0.736407,1.09275 -0.779148,2.51505 -0.10804,3.59504 0.604941,0.97351 32.890607,37.60379 34.688777,39.35677 1.13652,1.10796 1.42463,1.25656 2.43331,1.25502 0.64619,-0.001 1.44324,-0.2025 1.83136,-0.46302 0.96179,-0.64558 35.4196,-39.73538 35.74115,-40.54565 0.46663,-1.17583 0.0992,-2.88514 -0.81744,-3.80249 l -0.82704,-0.82771 -5.75027,-0.1323 c -6.05396,-0.13928 -6.50995,-0.22892 -7.3003,-1.43515 -0.39547,-0.60355 -0.43435,-3.04417 -0.43435,-27.262828 0,-14.629962 0.049,-26.599932 0.10885,-26.599932 0.35117,0 4.93626,2.101075 7.29948,3.344923 6.01852,3.167754 11.25359,7.133285 16.41206,12.432037 5.41598,5.563266 9.29005,11.094104 12.57824,17.95741 5.10406,10.6535 7.27497,21.67753 6.68547,33.94937 -1.06569,22.18495 -12.84084,42.38652 -31.70702,54.39689 -3.31022,2.10731 -9.69263,5.08303 -13.90292,6.48206 -7.96027,2.6451 -15.06602,3.58397 -23.93249,3.16217 z"
         id="path1092" />
    </g>
  </g>
</svg>
